<svg xmlns="http://www.w3.org/2000/svg" xmlns:xlink="http://www.w3.org/1999/xlink" width="275" height="57" viewBox="0 0 275 57">
  <defs>
    <clipPath id="clip-path">
      <rect id="Rectangle_551" data-name="Rectangle 551" width="241.497" height="34.898"/>
    </clipPath>
  </defs>
  <g id="Lumen_Technologies" data-name="Lumen Technologies" transform="translate(-27 -56.117)">
    <g id="Lumen-logo" transform="translate(37.47 67.168)">
      <g id="Group_4657">
        <g id="Group_833" data-name="Group 833">
          <g id="Group_832" data-name="Group 832" clip-path="url(#clip-path)">
            <g id="Group_4656" transform="translate(0 -0.279)">
              <path id="Path_1127" d="M34.5,66.516v28.9q0,2.513,2.931,2.513h27.36c1.815,0,2.931-.838,2.931-2.513S66.607,92.9,64.792,92.9H41.34c-.977,0-1.256-.419-1.256-1.256V66.516A2.5,2.5,0,0,0,37.571,64h-.14a2.628,2.628,0,0,0-2.792,2.373c-.14,0-.14,0-.14.14h0" transform="translate(-34.5 -63.724)"/>
              <path id="Path_1128" d="M69.684,85.437V66.592a2.792,2.792,0,0,0-5.584,0V85.856c0,11.726,7.259,12.982,19.822,12.982s19.822-1.4,19.822-12.982V66.592a2.792,2.792,0,0,0-5.584,0V85.3c0,9.492-5.025,8.236-14.239,8.236s-14.378,1.256-14.239-8.1" transform="translate(-22.78 -63.8)"/>
              <path id="Path_1129" d="M142.186,72.515V95.827A2.5,2.5,0,0,0,144.7,98.34h.279a2.52,2.52,0,0,0,2.792-2.234h0V67.769A3.579,3.579,0,0,0,144.42,64h-.14c-1.954,0-2.792,1.117-4.607,2.792l-14.1,13.959h0l-14.239-13.82c-1.815-1.815-3.211-2.792-4.746-2.792a3.8,3.8,0,0,0-3.49,3.769v28.2a2.5,2.5,0,0,0,2.513,2.513h.279a2.52,2.52,0,0,0,2.792-2.233h0V72.515h.279l13.4,12.7c1.256,1.117,2.094,2.094,3.071,2.094,1.256,0,1.815-.977,3.211-2.094l13.4-12.7Z" transform="translate(-7.339 -63.721)"/>
              <path id="Path_1130" d="M179.2,66.952c0-1.675-.977-2.652-2.931-2.652h-27.64c-1.954,0-2.931.977-2.931,2.652v2.513h30.711c1.815,0,2.792-.838,2.792-2.513" transform="translate(9.528 -63.602)"/>
              <path id="Path_1131" d="M145.6,74.6V91.212q0,2.513,2.931,2.513H176.45q2.931,0,2.931-2.513T176.45,88.7H152.3c-.977,0-1.256-.419-1.256-1.256V79.765h18.147q2.931,0,2.931-2.513t-2.931-2.513Z" transform="translate(9.489 -59.524)"/>
              <path id="Path_1132" d="M219.061,95.133V66.516A2.537,2.537,0,0,0,216.409,64h-.14a2.52,2.52,0,0,0-2.792,2.233h0V89.689L186.257,66.8C184.3,65.26,183.325,64,181.511,64S178.3,65.26,178.3,67.773V95.831a2.537,2.537,0,0,0,2.652,2.513h.14a2.52,2.52,0,0,0,2.792-2.234h0V72.24l26.942,23.173c1.815,1.536,3.071,2.931,4.886,2.931a3.185,3.185,0,0,0,3.35-3.211h0" transform="translate(22.436 -63.725)"/>
            </g>
          </g>
        </g>
      </g>
      <g id="Group_4660" transform="translate(245.266 0.412)">
        <g id="Group_4659">
          <g id="Group_4658">
            <path id="Path_1133" d="M210.2,68.49h0a4.349,4.349,0,0,1,4.467-4.188,4.268,4.268,0,0,1,4.188,4.048v.14a4.348,4.348,0,0,1-4.467,4.188,4.268,4.268,0,0,1-4.188-4.048Zm8.236,0h0a4.1,4.1,0,0,0-4.048-3.769,3.9,3.9,0,0,0-3.629,3.629v.14a3.919,3.919,0,0,0,7.817.558V68.49Zm-5.584-2.234h1.954c.977,0,1.675.419,1.675,1.4a1.387,1.387,0,0,1-.977,1.4l1.256,1.675h-.977l-1.117-1.536h-.977v1.536h-.838V66.256Zm1.954,2.094c.558,0,.838-.279.838-.7s-.279-.7-.838-.7H213.69v1.4Z" transform="translate(-210.2 -64.295)"/>
          </g>
        </g>
      </g>
    </g>
    <rect id="Rectangle_552" data-name="Rectangle 552" width="275" height="57" transform="translate(27 56.117)" fill="none"/>
  </g>
</svg>
